<?xml version="1.0" encoding="utf-8"?>
<!-- Generator: Adobe Illustrator 21.0.0, SVG Export Plug-In . SVG Version: 6.00 Build 0)  -->
<svg version="1.1" id="Layer_1" xmlns="http://www.w3.org/2000/svg" xmlns:xlink="http://www.w3.org/1999/xlink" x="0px" y="0px"
	 viewBox="0 0 202.2 75.9" style="enable-background:new 0 0 202.2 75.9;" xml:space="preserve">
<style type="text/css">
	.st0{fill:#186FB5;}
</style>
<g>
	<g>
		<path class="st0" d="M33,53.5h-2.4C12.6,53.5,0,38.1,0,20.9C0,10.1,5.4,0,21.4,0h10.9l3.3,12H24.7c-2.7,0-10.3,0-10.3,10.1
			c0,10.7,8,20,22,19.2L33,53.5z"/>
	</g>
	<g>
		<path class="st0" d="M60.6,13c16.3,0,16.2,12.9,16.2,15c0,12.4-7.1,26.6-18.9,26.6C46,54.6,38.9,40.4,38.9,28
			c0-2.1-0.1-15,16.2-15H60.6z M63.9,29.1c0-3.9-2.2-5.4-6.1-5.4c-3.9,0-6.1,1.6-6.1,5.4c0,8.2,3.8,14.1,6.1,14.1
			C60.1,43.2,63.9,37.4,63.9,29.1"/>
	</g>
	<g>
		<path class="st0" d="M92.2,10.7H79.6V0h12.6V10.7z M92.2,53.5H79.6V13.9h12.6V53.5z"/>
	</g>
	<g>
		<path class="st0" d="M108.3,13.9v2.3c2.5-2.4,5.4-3.1,8.8-3.2v11.3c-3.3,0.1-6.5,1.2-8.2,4.3v24.9H96.3V13.9H108.3z"/>
	</g>
	<g>
		<path class="st0" d="M141.7,13h-5.5C119.9,13,120,25.9,120,28c0,12.4,7.1,26.6,18.9,26.6c11.8,0,18.9-14.2,18.9-26.6
			C157.9,25.9,158,13,141.7,13 M139,43.2c-2.3,0-6.1-5.9-6.1-14.1c0-3.9,2.2-5.4,6.1-5.4c3.9,0,6.1,1.6,6.1,5.4
			C145,37.4,141.2,43.2,139,43.2"/>
	</g>
	<g>
		<polygon class="st0" points="145.6,10.5 136.5,10.5 140.8,0 150.5,0 		"/>
	</g>
	<g>
		<path class="st0" d="M179.6,13.9c10.7,0,14.1,4.7,14.1,15.2v24.3h-12.6V30.9c-0.1-5.1-0.2-6.2-5.5-6.3h-3v28.9h-12.6V13.9H179.6z"
			/>
	</g>
	<g>
		<path class="st0" d="M30.6,63.8h6.3v1.5h-4.5v2.1h3.8V69h-3.8v3.6h-1.8V63.8z"/>
		<path class="st0" d="M39.3,67.3L39.3,67.3c0.2-0.4,0.4-0.6,0.7-0.8s0.5-0.3,0.9-0.3c0.2,0,0.3,0,0.4,0v1.5h0
			c-0.5-0.1-1,0.1-1.4,0.4c-0.4,0.3-0.5,0.8-0.5,1.4v3.1h-1.7v-6.3h1.6V67.3z"/>
		<path class="st0" d="M42.3,66.3H44v6.3h-1.7V66.3z M43.8,65.5h-1.3l0.7-1.7h2L43.8,65.5z"/>
	</g>
	<g>
		<path class="st0" d="M48.4,72.8c-0.5,0-0.9-0.1-1.3-0.3c-0.4-0.2-0.7-0.4-1-0.7c-0.3-0.3-0.5-0.7-0.7-1.1
			c-0.2-0.4-0.2-0.8-0.2-1.3c0-0.5,0.1-0.9,0.2-1.3c0.2-0.4,0.4-0.8,0.7-1.1c0.3-0.3,0.6-0.5,1-0.7c0.4-0.2,0.8-0.3,1.3-0.3
			s0.9,0.1,1.3,0.3s0.7,0.4,1,0.7s0.5,0.7,0.7,1.1c0.2,0.4,0.2,0.8,0.2,1.3c0,0.5-0.1,0.9-0.2,1.3c-0.2,0.4-0.4,0.8-0.7,1.1
			s-0.6,0.5-1,0.7S48.8,72.8,48.4,72.8z M48.4,71.5c0.5,0,0.9-0.2,1.2-0.6c0.3-0.4,0.4-0.9,0.4-1.5s-0.1-1.1-0.4-1.5
			c-0.3-0.4-0.7-0.6-1.2-0.6s-0.9,0.2-1.2,0.6c-0.3,0.4-0.4,0.9-0.4,1.5s0.1,1.1,0.4,1.5C47.4,71.3,47.8,71.5,48.4,71.5z"/>
	</g>
	<g>
	</g>
	<g>
		<path class="st0" d="M57,63.8h1.8v8.8H57V63.8z"/>
		<path class="st0" d="M61.9,67.2L61.9,67.2c0.2-0.3,0.5-0.6,0.8-0.8s0.7-0.3,1.1-0.3c0.3,0,0.6,0.1,0.9,0.2
			c0.3,0.1,0.5,0.3,0.7,0.5c0.2,0.2,0.3,0.5,0.4,0.7c0.1,0.3,0.2,0.6,0.2,0.9v4.1h-1.7v-3.9c0-0.3-0.1-0.6-0.3-0.8
			c-0.2-0.2-0.5-0.3-0.8-0.3c-0.4,0-0.7,0.1-0.9,0.4c-0.2,0.3-0.4,0.6-0.4,1v3.6h-1.7v-6.3h1.6V67.2z"/>
		<path class="st0" d="M69.7,72.8c-0.4,0-0.8-0.1-1.1-0.2c-0.3-0.2-0.6-0.4-0.8-0.7c-0.2-0.3-0.4-0.6-0.5-1C67.1,70.4,67,70,67,69.5
			c0-0.5,0.1-0.9,0.2-1.4c0.1-0.4,0.3-0.8,0.6-1c0.2-0.3,0.5-0.5,0.9-0.7c0.3-0.2,0.7-0.2,1.1-0.2c0.4,0,0.8,0.1,1.1,0.3
			c0.3,0.2,0.5,0.4,0.7,0.7h0v-3.2h1.7v8.8h-1.6v-0.8h0c-0.2,0.3-0.4,0.5-0.7,0.7C70.5,72.7,70.1,72.8,69.7,72.8z M70,71.4
			c0.5,0,0.9-0.2,1.1-0.5c0.3-0.3,0.4-0.8,0.4-1.4c0-0.3,0-0.6-0.1-0.8c-0.1-0.2-0.1-0.5-0.3-0.6s-0.3-0.3-0.4-0.4
			c-0.2-0.1-0.4-0.1-0.7-0.1c-0.5,0-0.8,0.2-1,0.6c-0.2,0.4-0.3,0.8-0.3,1.4c0,0.6,0.1,1.1,0.3,1.4C69.3,71.2,69.6,71.4,70,71.4z"/>
		<path class="st0" d="M78.5,72.6v-0.7h0c-0.2,0.3-0.5,0.5-0.7,0.7c-0.3,0.2-0.6,0.2-1.1,0.2c-0.7,0-1.2-0.2-1.6-0.6
			c-0.4-0.4-0.6-1-0.6-1.7v-4.2h1.7v3.9c0,0.4,0.1,0.7,0.3,0.8c0.2,0.2,0.4,0.3,0.8,0.3c0.4,0,0.7-0.1,0.9-0.4s0.3-0.6,0.3-1v-3.6
			h1.7v6.3H78.5z"/>
		<path class="st0" d="M84.1,72.8c-0.9,0-1.6-0.2-2.1-0.6c-0.5-0.4-0.8-0.9-0.8-1.6h1.5c0.1,0.4,0.2,0.6,0.4,0.8
			c0.2,0.2,0.6,0.2,0.9,0.2c0.4,0,0.7-0.1,0.9-0.2c0.2-0.1,0.3-0.3,0.3-0.5c0-0.1,0-0.3-0.1-0.4c-0.1-0.1-0.2-0.2-0.4-0.2
			c-0.2-0.1-0.3-0.1-0.5-0.1c-0.2,0-0.4-0.1-0.6-0.1c-0.3-0.1-0.6-0.1-0.8-0.2c-0.3-0.1-0.5-0.2-0.7-0.3c-0.2-0.1-0.4-0.3-0.5-0.5
			s-0.2-0.5-0.2-0.8s0.1-0.6,0.2-0.9s0.3-0.5,0.5-0.6c0.2-0.2,0.5-0.3,0.8-0.4c0.3-0.1,0.6-0.1,1-0.1c0.8,0,1.5,0.2,1.9,0.6
			c0.4,0.4,0.7,0.9,0.8,1.5h-1.5c0-0.3-0.2-0.6-0.4-0.7s-0.5-0.2-0.8-0.2c-0.3,0-0.6,0.1-0.8,0.2c-0.2,0.1-0.3,0.3-0.3,0.5
			c0,0.1,0,0.2,0.1,0.3c0.1,0.1,0.2,0.1,0.4,0.2c0.2,0.1,0.3,0.1,0.6,0.1c0.2,0,0.4,0.1,0.6,0.1c0.3,0.1,0.5,0.1,0.8,0.2
			c0.3,0.1,0.5,0.2,0.7,0.3c0.2,0.1,0.4,0.3,0.5,0.6c0.1,0.2,0.2,0.5,0.2,0.9c0,0.3-0.1,0.6-0.2,0.9c-0.1,0.2-0.3,0.5-0.5,0.6
			c-0.2,0.2-0.5,0.3-0.8,0.4C84.8,72.8,84.5,72.8,84.1,72.8z"/>
		<path class="st0" d="M87.3,66.3h0.9v-2h1.6v2h1.1v1.1h-1.1v3.3c0,0.2,0.1,0.4,0.2,0.5s0.3,0.1,0.5,0.1h0.3c0.1,0,0.1,0,0.2,0v1.2
			c-0.1,0-0.2,0-0.3,0c-0.1,0-0.2,0-0.3,0s-0.3,0-0.4,0c-0.2,0-0.4,0-0.6-0.1c-0.2,0-0.4-0.1-0.5-0.2c-0.2-0.1-0.3-0.3-0.4-0.5
			c-0.1-0.2-0.2-0.4-0.2-0.7v-3.7h-0.9V66.3z"/>
		<path class="st0" d="M93.7,67.3L93.7,67.3c0.2-0.4,0.4-0.6,0.7-0.8s0.5-0.3,0.9-0.3c0.2,0,0.3,0,0.4,0v1.5h0
			c-0.5-0.1-1,0.1-1.4,0.4c-0.4,0.3-0.5,0.8-0.5,1.4v3.1H92v-6.3h1.6V67.3z"/>
		<path class="st0" d="M96.7,63.8h1.7v1.5h-1.7V63.8z M96.7,66.3h1.7v6.3h-1.7V66.3z"/>
		<path class="st0" d="M103.7,72.6c0-0.1-0.1-0.2-0.1-0.3c0-0.1-0.1-0.3-0.1-0.4h0c-0.1,0.1-0.2,0.2-0.3,0.3
			c-0.1,0.1-0.2,0.2-0.4,0.3c-0.1,0.1-0.3,0.1-0.5,0.2s-0.4,0.1-0.7,0.1c-0.6,0-1.2-0.2-1.6-0.5c-0.4-0.3-0.6-0.8-0.6-1.4
			c0-0.3,0.1-0.6,0.2-0.9s0.3-0.4,0.5-0.6c0.2-0.2,0.5-0.3,0.8-0.4c0.3-0.1,0.6-0.2,1-0.2c0.5-0.1,0.9-0.2,1.2-0.2
			c0.2-0.1,0.4-0.2,0.4-0.5c0-0.2-0.1-0.4-0.3-0.5s-0.4-0.2-0.8-0.2c-0.4,0-0.7,0.1-0.9,0.2c-0.2,0.1-0.3,0.4-0.3,0.7h-1.5
			c0-0.3,0.1-0.5,0.2-0.8s0.3-0.5,0.5-0.7c0.2-0.2,0.5-0.3,0.8-0.5c0.3-0.1,0.7-0.2,1.2-0.2c0.9,0,1.6,0.2,2,0.6
			c0.4,0.4,0.6,1,0.6,1.7v3.2c0,0.5,0.1,0.8,0.2,0.9v0.1H103.7z M102,71.6c0.2,0,0.4,0,0.6-0.1s0.3-0.2,0.5-0.3
			c0.1-0.1,0.2-0.2,0.3-0.4c0.1-0.1,0.1-0.3,0.1-0.4v-0.9c-0.1,0.1-0.3,0.2-0.5,0.2s-0.4,0.1-0.6,0.2c-0.4,0.1-0.8,0.2-1,0.3
			c-0.2,0.1-0.3,0.3-0.3,0.6c0,0.3,0.1,0.5,0.3,0.6C101.5,71.5,101.7,71.6,102,71.6z"/>
	</g>
	<g>
		<path class="st0" d="M106.5,63.8h1.7v8.8h-1.7V63.8z"/>
	</g>
	<g>
	</g>
	<g>
		<path class="st0" d="M117.6,72.8c-0.6,0-1.2-0.1-1.7-0.3s-1-0.5-1.3-0.9s-0.7-0.9-0.9-1.4c-0.2-0.6-0.3-1.2-0.3-1.8
			c0-0.6,0.1-1.2,0.3-1.8s0.5-1,0.8-1.5c0.4-0.4,0.8-0.7,1.3-1c0.5-0.2,1.1-0.3,1.7-0.3c0.5,0,1,0.1,1.4,0.2
			c0.4,0.2,0.8,0.4,1.1,0.6c0.3,0.3,0.6,0.6,0.7,0.9c0.2,0.4,0.3,0.7,0.3,1.2h-1.8c-0.1-0.4-0.3-0.8-0.6-1.1
			c-0.3-0.3-0.7-0.4-1.3-0.4c-0.4,0-0.8,0.1-1.1,0.2c-0.3,0.2-0.5,0.4-0.7,0.7s-0.3,0.6-0.4,1c-0.1,0.4-0.1,0.8-0.1,1.2
			c0,0.5,0.1,0.9,0.2,1.2c0.1,0.4,0.3,0.7,0.5,1c0.2,0.3,0.5,0.5,0.8,0.6s0.6,0.2,1,0.2c0.5,0,1-0.1,1.3-0.4
			c0.3-0.3,0.5-0.7,0.6-1.1h1.7c0,0.4-0.1,0.8-0.3,1.1c-0.2,0.4-0.4,0.7-0.7,1c-0.3,0.3-0.7,0.5-1.1,0.7S118.2,72.8,117.6,72.8z"/>
		<path class="st0" d="M125.4,72.8c-0.5,0-0.9-0.1-1.3-0.3c-0.4-0.2-0.7-0.4-1-0.7c-0.3-0.3-0.5-0.7-0.7-1.1
			c-0.2-0.4-0.2-0.8-0.2-1.3c0-0.5,0.1-0.9,0.2-1.3c0.2-0.4,0.4-0.8,0.7-1.1c0.3-0.3,0.6-0.5,1-0.7c0.4-0.2,0.8-0.3,1.3-0.3
			c0.5,0,0.9,0.1,1.3,0.3c0.4,0.2,0.7,0.4,1,0.7c0.3,0.3,0.5,0.7,0.7,1.1c0.2,0.4,0.2,0.8,0.2,1.3c0,0.5-0.1,0.9-0.2,1.3
			c-0.2,0.4-0.4,0.8-0.7,1.1c-0.3,0.3-0.6,0.5-1,0.7C126.3,72.7,125.9,72.8,125.4,72.8z M125.4,71.5c0.5,0,0.9-0.2,1.2-0.6
			c0.3-0.4,0.4-0.9,0.4-1.5s-0.1-1.1-0.4-1.5c-0.3-0.4-0.7-0.6-1.2-0.6s-0.9,0.2-1.2,0.6c-0.3,0.4-0.4,0.9-0.4,1.5s0.1,1.1,0.4,1.5
			C124.5,71.3,124.9,71.5,125.4,71.5z"/>
		<path class="st0" d="M129.8,66.3h1.6v0.8h0c0.2-0.3,0.4-0.5,0.7-0.7c0.3-0.2,0.7-0.3,1.1-0.3c0.4,0,0.8,0.1,1.1,0.3
			s0.5,0.5,0.7,0.8h0c0.2-0.3,0.5-0.6,0.8-0.8c0.3-0.2,0.7-0.3,1.1-0.3c0.7,0,1.2,0.2,1.5,0.6c0.4,0.4,0.5,0.9,0.5,1.6v4.2h-1.7v-4
			c0-0.4-0.1-0.6-0.3-0.8s-0.4-0.3-0.7-0.3c-0.4,0-0.6,0.1-0.8,0.4c-0.2,0.2-0.3,0.6-0.3,1v3.7h-1.7v-4c0-0.4-0.1-0.6-0.3-0.8
			c-0.2-0.2-0.4-0.3-0.7-0.3c-0.3,0-0.6,0.1-0.8,0.4c-0.2,0.2-0.3,0.6-0.3,1v3.7h-1.7V66.3z"/>
		<path class="st0" d="M140.3,66.3h1.6v0.8h0c0.2-0.3,0.5-0.5,0.8-0.7c0.3-0.2,0.7-0.3,1.1-0.3c0.4,0,0.8,0.1,1.1,0.2
			s0.6,0.4,0.9,0.7c0.2,0.3,0.4,0.6,0.6,1c0.1,0.4,0.2,0.9,0.2,1.4c0,0.5-0.1,1-0.2,1.4c-0.1,0.4-0.3,0.8-0.6,1
			c-0.2,0.3-0.5,0.5-0.9,0.7c-0.3,0.2-0.7,0.2-1.1,0.2c-0.4,0-0.8-0.1-1.1-0.2c-0.3-0.2-0.5-0.4-0.7-0.7h0v2.8h-1.7V66.3z
			 M143.4,71.4c0.4,0,0.8-0.2,1-0.5s0.4-0.8,0.4-1.4c0-0.6-0.1-1.1-0.3-1.5c-0.2-0.4-0.6-0.6-1.1-0.6c-0.3,0-0.5,0.1-0.7,0.2
			c-0.2,0.1-0.3,0.2-0.5,0.4c-0.1,0.2-0.2,0.4-0.3,0.6c-0.1,0.2-0.1,0.5-0.1,0.8c0,0.6,0.1,1,0.4,1.4
			C142.6,71.2,142.9,71.4,143.4,71.4z"/>
		<path class="st0" d="M151.6,72.6c0-0.1-0.1-0.2-0.1-0.3c0-0.1-0.1-0.3-0.1-0.4h0c-0.1,0.1-0.2,0.2-0.3,0.3
			c-0.1,0.1-0.2,0.2-0.4,0.3c-0.1,0.1-0.3,0.1-0.5,0.2c-0.2,0-0.4,0.1-0.7,0.1c-0.6,0-1.2-0.2-1.6-0.5c-0.4-0.3-0.6-0.8-0.6-1.4
			c0-0.3,0.1-0.6,0.2-0.9s0.3-0.4,0.5-0.6c0.2-0.2,0.5-0.3,0.8-0.4c0.3-0.1,0.6-0.2,1-0.2c0.5-0.1,0.9-0.2,1.2-0.2
			c0.2-0.1,0.4-0.2,0.4-0.5c0-0.2-0.1-0.4-0.3-0.5c-0.2-0.1-0.4-0.2-0.8-0.2c-0.4,0-0.7,0.1-0.9,0.2c-0.2,0.1-0.3,0.4-0.3,0.7h-1.5
			c0-0.3,0.1-0.5,0.2-0.8c0.1-0.2,0.3-0.5,0.5-0.7c0.2-0.2,0.5-0.3,0.8-0.5c0.3-0.1,0.7-0.2,1.2-0.2c0.9,0,1.6,0.2,2,0.6
			c0.4,0.4,0.6,1,0.6,1.7v3.2c0,0.5,0.1,0.8,0.2,0.9v0.1H151.6z M149.9,71.6c0.2,0,0.4,0,0.6-0.1c0.2-0.1,0.3-0.2,0.5-0.3
			c0.1-0.1,0.2-0.2,0.3-0.4c0.1-0.1,0.1-0.3,0.1-0.4v-0.9c-0.1,0.1-0.3,0.2-0.5,0.2s-0.4,0.1-0.6,0.2c-0.4,0.1-0.8,0.2-1,0.3
			c-0.2,0.1-0.3,0.3-0.3,0.6c0,0.3,0.1,0.5,0.3,0.6C149.4,71.5,149.6,71.6,149.9,71.6z"/>
		<path class="st0" d="M157.2,72.8c-0.5,0-0.9-0.1-1.3-0.3s-0.7-0.4-1-0.7c-0.3-0.3-0.5-0.7-0.6-1.1c-0.2-0.4-0.2-0.8-0.2-1.3
			c0-0.5,0.1-0.9,0.2-1.3c0.1-0.4,0.4-0.8,0.6-1.1c0.3-0.3,0.6-0.5,1-0.7s0.8-0.3,1.3-0.3c0.4,0,0.8,0.1,1.1,0.2
			c0.3,0.1,0.6,0.3,0.9,0.5c0.2,0.2,0.4,0.4,0.6,0.7c0.2,0.3,0.3,0.6,0.3,0.9h-1.6c-0.1-0.3-0.2-0.5-0.4-0.7
			c-0.2-0.2-0.5-0.3-0.8-0.3c-0.5,0-0.9,0.2-1.1,0.5c-0.3,0.4-0.4,0.8-0.4,1.5c0,0.6,0.1,1.1,0.4,1.4c0.2,0.4,0.6,0.5,1.1,0.5
			c0.3,0,0.6-0.1,0.8-0.3c0.2-0.2,0.4-0.4,0.4-0.8h1.6c0,0.3-0.1,0.6-0.3,0.9c-0.1,0.3-0.3,0.5-0.6,0.8c-0.2,0.2-0.5,0.4-0.9,0.5
			C158,72.7,157.6,72.8,157.2,72.8z"/>
		<path class="st0" d="M160.7,66.3h0.9v-2h1.6v2h1.1v1.1h-1.1v3.3c0,0.2,0.1,0.4,0.2,0.5c0.1,0.1,0.3,0.1,0.5,0.1h0.3
			c0.1,0,0.1,0,0.2,0v1.2c-0.1,0-0.2,0-0.3,0c-0.1,0-0.2,0-0.3,0s-0.3,0-0.4,0c-0.2,0-0.4,0-0.6-0.1c-0.2,0-0.4-0.1-0.5-0.2
			c-0.2-0.1-0.3-0.3-0.4-0.5c-0.1-0.2-0.2-0.4-0.2-0.7v-3.7h-0.9V66.3z"/>
		<path class="st0" d="M168.4,72.8c-0.5,0-0.9-0.1-1.3-0.3c-0.4-0.2-0.7-0.4-1-0.7s-0.5-0.7-0.7-1.1c-0.2-0.4-0.2-0.8-0.2-1.3
			c0-0.5,0.1-0.9,0.2-1.3c0.2-0.4,0.4-0.8,0.7-1.1s0.6-0.5,1-0.7c0.4-0.2,0.8-0.3,1.3-0.3c0.5,0,0.9,0.1,1.3,0.3
			c0.4,0.2,0.7,0.4,1,0.7c0.3,0.3,0.5,0.7,0.7,1.1c0.2,0.4,0.2,0.8,0.2,1.3c0,0.5-0.1,0.9-0.2,1.3c-0.2,0.4-0.4,0.8-0.7,1.1
			c-0.3,0.3-0.6,0.5-1,0.7C169.3,72.7,168.9,72.8,168.4,72.8z M168.4,71.5c0.5,0,0.9-0.2,1.2-0.6c0.3-0.4,0.4-0.9,0.4-1.5
			s-0.1-1.1-0.4-1.5c-0.3-0.4-0.7-0.6-1.2-0.6s-0.9,0.2-1.2,0.6c-0.3,0.4-0.4,0.9-0.4,1.5s0.1,1.1,0.4,1.5
			C167.5,71.3,167.9,71.5,168.4,71.5z"/>
	</g>
	<g>
		<path class="st0" d="M198.7,21c-0.5,0-1-0.1-1.4-0.3c-0.4-0.2-0.8-0.4-1.1-0.7c-0.3-0.3-0.6-0.7-0.7-1.1c-0.2-0.4-0.3-0.9-0.3-1.4
			c0-0.5,0.1-1,0.3-1.4c0.2-0.4,0.4-0.8,0.7-1.1c0.3-0.3,0.7-0.6,1.1-0.7c0.4-0.2,0.9-0.3,1.4-0.3c0.5,0,0.9,0.1,1.4,0.3
			c0.4,0.2,0.8,0.4,1.1,0.7c0.3,0.3,0.6,0.7,0.8,1.1c0.2,0.4,0.3,0.9,0.3,1.4c0,0.5-0.1,1-0.3,1.4c-0.2,0.4-0.4,0.8-0.8,1.1
			c-0.3,0.3-0.7,0.6-1.1,0.7C199.6,21,199.2,21,198.7,21 M198.7,20.5c0.4,0,0.8-0.1,1.1-0.2c0.4-0.2,0.7-0.4,0.9-0.6
			c0.3-0.3,0.5-0.6,0.6-1c0.1-0.4,0.2-0.8,0.2-1.2c0-0.4-0.1-0.8-0.2-1.2c-0.1-0.4-0.3-0.7-0.6-0.9c-0.3-0.3-0.6-0.5-0.9-0.6
			c-0.4-0.2-0.7-0.2-1.1-0.2c-0.4,0-0.8,0.1-1.1,0.2c-0.4,0.2-0.7,0.4-0.9,0.6c-0.3,0.3-0.5,0.6-0.6,0.9c-0.1,0.4-0.2,0.8-0.2,1.2
			c0,0.4,0.1,0.8,0.2,1.2c0.1,0.4,0.3,0.7,0.6,1c0.3,0.3,0.6,0.5,0.9,0.6C197.9,20.4,198.3,20.5,198.7,20.5 M197.2,15.6h1.8
			c0.4,0,0.7,0.1,1,0.3c0.3,0.2,0.4,0.5,0.4,0.8c0,0.5-0.2,0.7-0.6,0.9v0c0.2,0,0.3,0.1,0.4,0.2c0.1,0.1,0.1,0.3,0.2,0.4
			c0.1,0.2,0.1,0.4,0.1,0.6c0,0.2,0,0.3,0.1,0.3v0.1h-1c-0.1,0-0.1-0.1-0.1-0.3c0-0.2,0-0.4-0.1-0.5c0-0.3-0.2-0.5-0.6-0.5h-0.5v1.4
			h-1V15.6z M198.2,17.2h0.6c0.3,0,0.5-0.1,0.5-0.4c0-0.3-0.2-0.4-0.5-0.4h-0.6V17.2z"/>
	</g>
</g>
</svg>
